<?xml version="1.0" standalone="no"?>
<!DOCTYPE svg PUBLIC "-//W3C//DTD SVG 20010904//EN"
 "http://www.w3.org/TR/2001/REC-SVG-20010904/DTD/svg10.dtd">
<svg version="1.0" xmlns="http://www.w3.org/2000/svg"
 width="40000.000000pt" height="40000.000000pt" viewBox="0 0 1080.000000 1080.000000"
 preserveAspectRatio="xMidYMid meet">

<g transform="translate(0.000000,1080.000000) scale(0.100000,-0.100000)"
fill="#000000" stroke="none">
<path d="M5339 9028 c-1 -365 -2 -781 -3 -925 0 -145 2 -263 7 -263 4 0 7 416
7 925 0 509 -2 925 -5 925 -3 0 -6 -298 -6 -662z"/>
<path d="M4109 7312 c-64 -31 -113 -74 -171 -152 -23 -30 -55 -72 -71 -93
l-29 -38 40 28 c22 15 37 32 34 37 -3 5 0 6 6 2 6 -4 29 2 51 14 48 24 58 25
41 5 -11 -13 -10 -14 4 -9 9 3 16 13 16 22 0 8 3 13 6 9 10 -10 64 22 64 38 0
8 -5 15 -11 15 -5 0 -8 -4 -5 -9 3 -5 -1 -12 -10 -15 -25 -9 -27 -7 -13 11 13
15 12 15 -11 4 -24 -11 -24 -11 -6 3 11 9 26 16 34 16 7 0 10 5 7 10 -4 6 -11
7 -17 4 -7 -4 -8 -2 -4 5 4 6 12 9 17 6 5 -4 9 1 9 10 0 10 5 13 13 9 6 -4 3
3 -8 17 -12 14 -14 19 -4 11 14 -10 18 -10 23 3 3 8 0 15 -7 15 -6 0 5 9 26
20 21 11 43 17 49 14 7 -4 8 -3 4 4 -9 16 -12 15 -77 -16z"/>
<path d="M5975 7161 c-3 -5 -2 -12 3 -15 5 -3 9 1 9 9 0 17 -3 19 -12 6z"/>
<path d="M6010 7131 c0 -11 4 -22 9 -25 4 -3 6 6 3 19 -5 30 -12 33 -12 6z"/>
<path d="M5937 7123 c-3 -5 -2 -15 2 -22 7 -10 10 -10 16 -1 4 6 3 16 -3 22
-5 5 -12 6 -15 1z"/>
<path d="M5986 7116 c6 -15 4 -17 -6 -11 -9 6 -11 4 -5 -4 5 -9 10 -10 18 -2
8 8 7 14 -2 24 -10 10 -11 8 -5 -7z"/>
<path d="M5902 7060 c0 -19 2 -27 5 -17 2 9 2 25 0 35 -3 9 -5 1 -5 -18z"/>
<path d="M6042 7085 c3 -3 29 -7 59 -10 40 -3 46 -2 24 4 -35 10 -91 13 -83 6z"/>
<path d="M3956 7013 c-6 -14 -5 -15 5 -6 7 7 10 15 7 18 -3 3 -9 -2 -12 -12z"/>
<path d="M6152 7000 c0 -19 4 -46 8 -60 6 -20 8 -21 8 -5 1 11 -3 38 -7 60
l-9 40 0 -35z"/>
<path d="M5914 6995 c-3 -8 -2 -40 3 -70 7 -39 7 -55 -1 -56 -6 -1 20 -7 59
-13 83 -13 82 -12 84 -170 l1 -98 -24 6 c-13 3 -69 9 -125 12 l-101 7 0 52 c0
91 -12 181 -21 157 -8 -21 -32 -23 -62 -6 -7 5 -6 0 3 -11 14 -17 14 -18 -10
-5 -22 12 -24 11 -13 -2 15 -17 7 -29 -13 -21 -8 3 -16 -1 -18 -8 -21 -73 -31
-101 -38 -105 -5 -3 -2 11 6 31 9 21 16 45 16 54 -1 16 -28 -50 -33 -81 -2
-10 -6 -21 -11 -25 -4 -4 2 -14 13 -23 19 -14 21 -26 22 -144 0 -109 -2 -131
-17 -145 -9 -9 -13 -10 -9 -3 6 11 3 11 -12 1 -25 -15 -25 -35 1 -56 l21 -18
-20 25 -20 25 23 -20 c14 -12 21 -26 18 -38 -4 -15 -2 -16 10 -6 10 8 14 8 14
1 0 -7 7 -9 17 -5 13 5 12 1 -5 -17 -13 -14 -18 -26 -12 -28 7 -3 4 -10 -7
-19 -10 -8 -12 -12 -5 -8 11 6 18 -20 13 -48 -1 -5 3 -6 8 -3 5 4 16 -1 25
-10 9 -8 26 -17 38 -20 13 -2 32 -6 44 -8 20 -4 21 1 28 112 4 64 9 118 11
120 1 2 58 -2 125 -9 l123 -12 -7 -131 c-4 -72 -9 -133 -11 -136 -2 -4 -37 -3
-77 1 -87 9 -228 17 -228 12 0 -8 59 -31 66 -25 5 4 -6 -10 -25 -30 -29 -31
-37 -35 -50 -25 -12 10 -13 9 -6 -2 6 -11 4 -13 -10 -7 -14 5 -15 4 -7 -6 8
-10 5 -20 -9 -38 -11 -14 -17 -18 -13 -9 3 10 1 19 -3 22 -5 3 -10 -8 -11 -24
-2 -19 2 -28 8 -24 14 9 12 -1 -3 -13 -10 -8 -13 -5 -15 16 -3 50 -13 116 -18
121 -2 2 -4 -21 -4 -51 0 -30 -3 -83 -6 -117 l-7 -61 -111 -2 c-61 -1 -92 -3
-68 -5 l43 -4 -3 -127 -3 -127 -120 0 -120 0 -6 100 -5 100 -2 -101 -2 -101
-82 -6 c-129 -10 -146 -9 -151 11 -4 13 -5 12 -6 -5 -1 -15 -9 -23 -28 -26
-16 -3 11 -3 58 0 l86 5 6 -33 c3 -19 9 -75 13 -125 l6 -91 -77 -6 c-134 -12
-120 -20 -141 89 -10 53 -20 92 -22 86 -2 -6 4 -48 13 -93 9 -44 14 -83 11
-87 -4 -3 -25 -9 -49 -13 -25 -5 0 -6 60 -3 101 5 102 5 107 -18 3 -13 10 -43
15 -68 l10 -45 -5 50 c-3 28 -7 58 -10 67 -6 20 50 31 141 26 l60 -3 6 -75 5
-75 2 78 2 77 104 0 c101 0 105 -1 109 -22 4 -23 4 -23 6 1 l1 24 138 -6 c75
-4 153 -9 172 -12 19 -4 30 -3 24 2 -8 6 -4 42 14 131 l26 124 55 -7 c166 -19
153 -14 147 -49 l-6 -31 11 28 c7 18 18 27 32 27 29 -1 156 -26 162 -32 3 -3
1 -18 -5 -33 -6 -15 -9 -30 -6 -32 2 -2 9 12 16 32 9 26 16 34 28 31 10 -3 46
-12 81 -21 36 -8 67 -17 69 -19 2 -2 -4 -18 -12 -35 -9 -16 -16 -34 -16 -38 1
-4 10 9 21 30 11 20 23 37 28 37 28 0 140 -44 134 -52 -3 -7 -1 -8 5 -4 21 12
13 24 -23 37 -19 7 -35 17 -35 22 0 4 -4 6 -8 3 -5 -3 -43 4 -85 16 -70 19
-77 23 -71 42 14 44 14 50 -1 19 -8 -18 -18 -33 -23 -33 -30 0 -172 35 -172
42 0 5 -5 6 -11 2 -6 -3 -54 -1 -106 6 -95 13 -95 13 -89 39 3 14 13 69 22
121 10 52 20 99 24 103 8 9 182 -12 202 -24 9 -6 6 -33 -15 -115 -15 -59 -26
-109 -24 -111 2 -2 16 43 31 99 15 57 29 108 31 115 4 11 18 10 142 -18 49
-11 52 -14 48 -38 -5 -25 -5 -25 4 -3 12 27 16 27 108 3 40 -11 71 -15 68 -11
-3 4 -20 11 -39 14 -33 6 -35 9 -26 32 13 33 13 67 0 59 -5 -3 -10 1 -10 10 0
10 5 13 13 9 8 -5 7 -2 -2 9 -8 10 -16 15 -19 13 -2 -3 -12 4 -22 16 -13 16
-19 18 -25 8 -6 -9 -4 -11 5 -5 9 6 11 4 5 -5 -6 -10 -11 -9 -21 4 -9 13 -13
14 -17 4 -4 -10 -6 -10 -6 0 -1 7 -16 27 -35 45 l-34 33 -10 -50 c-6 -28 -14
-66 -17 -85 -8 -37 4 -36 -154 -9 l-63 10 7 42 c4 22 13 81 20 130 8 48 15 90
17 91 2 2 41 -3 87 -11 45 -8 94 -15 107 -16 15 -2 24 -9 24 -20 0 -9 5 -20
10 -23 6 -3 10 -1 10 5 0 6 11 8 25 6 17 -3 23 -1 19 6 -5 7 -1 9 9 5 10 -3
17 -3 17 2 0 4 -43 16 -96 26 l-96 19 6 51 c3 27 8 88 12 134 7 81 8 84 48
123 23 22 36 37 30 34 -7 -3 -14 3 -17 14 -3 11 -2 20 3 20 13 0 20 29 8 36
-6 4 -8 3 -4 -4 3 -6 3 -13 -2 -16 -13 -8 -11 28 2 36 8 6 8 8 0 8 -7 0 -15 7
-18 16 -6 15 -4 15 11 3 11 -9 14 -9 9 -2 -4 7 -2 21 4 32 7 14 7 22 -2 27 -6
4 -8 3 -4 -4 3 -6 3 -13 -2 -16 -4 -2 -8 11 -8 29 0 27 3 32 13 23 9 -8 13 -7
13 2 0 8 3 10 6 7 4 -4 1 -13 -6 -22 -8 -10 -9 -15 -1 -15 10 0 13 5 15 32 1
11 -15 16 -61 21 -15 1 -23 9 -24 22 -1 13 -3 15 -5 5 -4 -12 -15 -14 -46 -12
-32 4 -39 2 -32 -9 7 -12 5 -12 -9 0 -9 7 -17 10 -17 5 0 -5 -4 -3 -8 4 -5 7
-35 17 -67 22 -32 5 -59 11 -60 12 -2 2 -6 48 -9 103 -4 55 -8 109 -9 120 -2
18 4 20 58 18 63 -1 50 9 -27 22 -21 3 -38 9 -38 13 0 4 -25 5 -56 4 -31 -2
-60 0 -64 5 -5 4 -10 36 -11 71 -2 64 -5 73 -15 47z m-264 -349 c0 -2 -7 -7
-16 -10 -8 -3 -12 -2 -9 4 6 10 25 14 25 6z m203 -52 l77 -6 0 -135 0 -136
-77 7 c-42 3 -100 6 -130 6 l-53 0 0 141 0 140 53 -5 c28 -3 87 -8 130 -12z
m284 -59 c0 -8 -4 -12 -9 -9 -5 3 -6 10 -3 15 9 13 12 11 12 -6z m33 1 c0 6 7
11 15 11 8 0 12 -3 10 -7 -2 -3 -5 -28 -6 -54 -2 -26 -6 -49 -10 -51 -9 -6
-33 24 -26 32 4 3 2 12 -5 20 -8 10 -8 17 0 25 6 6 8 18 5 27 -4 14 -3 14 6 1
6 -8 11 -10 11 -4z m50 -270 c79 -10 85 -13 88 -36 4 -24 -16 -241 -23 -248
-1 -2 -53 4 -115 14 l-111 17 6 101 c3 56 8 116 11 134 6 37 8 37 144 18z
m311 -531 c5 3 6 -1 3 -10 -6 -14 -8 -14 -20 2 -7 10 -13 23 -13 28 0 6 4 2
10 -8 6 -9 14 -15 20 -12z m-780 -4 c4 -3 1 -55 -7 -116 -7 -60 -13 -116 -13
-122 -1 -15 -56 -17 -163 -6 l-68 6 0 52 c0 29 3 87 7 129 l6 77 116 -7 c64
-3 119 -9 122 -13z m234 -18 c8 -3 15 -13 15 -22 0 -22 -39 -223 -44 -228 -2
-3 -51 -1 -108 4 -119 9 -109 -10 -88 162 l13 104 99 -7 c54 -4 105 -9 113
-13z m-643 -398 c4 -16 1 -22 -6 -18 -6 4 -5 -1 2 -10 8 -9 12 -24 10 -33 -3
-18 -34 -28 -43 -14 -3 5 -16 7 -30 4 -19 -3 -23 0 -22 15 0 11 5 17 9 15 4
-3 8 3 9 13 0 11 3 13 6 5 3 -7 -1 -20 -9 -30 -11 -15 -11 -16 3 -5 9 7 19 10
22 7 3 -4 14 12 24 35 10 22 18 41 19 41 1 0 4 -11 6 -25z m-32 4 c0 8 2 12 5
9 3 -3 -1 -18 -9 -33 l-15 -28 1 32 c1 21 4 28 9 19 7 -10 9 -10 9 1z"/>
<path d="M6155 6509 c-4 -6 -3 -15 3 -21 6 -6 11 -4 15 6 7 18 -9 31 -18 15z"/>
<path d="M6160 6461 c0 -6 4 -13 10 -16 6 -3 7 1 4 9 -7 18 -14 21 -14 7z"/>
<path d="M3924 6932 c2 -4 -20 -20 -50 -36 -30 -16 -53 -30 -51 -32 8 -8 117
58 112 67 -4 5 -8 9 -11 9 -3 0 -3 -4 0 -8z"/>
<path d="M3730 6879 c-12 -23 -20 -43 -18 -45 3 -2 14 17 26 41 27 56 20 60
-8 4z"/>
<path d="M6172 6880 c0 -19 2 -27 5 -17 2 9 2 25 0 35 -3 9 -5 1 -5 -18z"/>
<path d="M3760 6830 l-35 -30 40 25 c47 31 51 35 39 35 -5 0 -25 -14 -44 -30z"/>
<path d="M5760 6829 c0 -5 -6 -7 -12 -3 -7 4 -9 3 -5 -1 13 -15 36 -14 30 1
-6 17 -13 18 -13 3z"/>
<path d="M6218 6823 c6 -2 18 -2 25 0 6 3 1 5 -13 5 -14 0 -19 -2 -12 -5z"/>
<path d="M6431 6384 c0 -11 3 -14 6 -6 3 7 2 16 -1 19 -3 4 -6 -2 -5 -13z"/>
<path d="M6432 6335 c0 -16 2 -22 5 -12 2 9 2 23 0 30 -3 6 -5 -1 -5 -18z"/>
<path d="M3510 6296 c-6 -30 -10 -72 -8 -93 2 -28 6 -15 15 51 14 102 10 125
-7 42z"/>
<path d="M4438 6263 c7 -3 16 -2 19 1 4 3 -2 6 -13 5 -11 0 -14 -3 -6 -6z"/>
<path d="M3564 6238 l-19 -23 23 19 c21 18 27 26 19 26 -2 0 -12 -10 -23 -22z"/>
<path d="M4411 6229 c0 -20 4 -83 9 -139 6 -56 10 -104 8 -106 -5 -5 -201 -44
-204 -41 -2 2 -8 28 -13 58 l-10 54 2 -59 2 -60 -85 -24 c-47 -13 -89 -28 -95
-34 -7 -7 -4 -8 10 -4 64 18 259 66 270 66 8 0 17 -10 19 -22 3 -13 13 -61 23
-108 11 -55 19 -77 23 -64 7 29 24 13 36 -33 4 -13 11 -23 16 -23 5 0 6 -4 3
-10 -3 -5 0 -10 8 -10 8 0 21 -8 28 -17 11 -15 11 -16 -1 -5 -8 6 -19 12 -24
12 -6 0 0 -7 12 -16 12 -8 26 -12 32 -9 6 4 7 -1 3 -11 -4 -12 -3 -15 5 -10 7
4 12 13 12 21 0 8 4 16 8 19 5 3 8 -15 7 -39 0 -25 3 -45 8 -45 4 0 5 -6 1
-12 -5 -8 0 -7 11 2 13 10 16 11 11 2 -6 -9 -3 -12 9 -10 10 2 20 -4 22 -12 4
-13 3 -13 -6 0 -7 9 -11 10 -11 3 0 -16 17 -26 25 -13 8 13 25 3 25 -13 0 -7
-4 -6 -10 3 -6 9 -10 10 -10 3 0 -20 18 -24 29 -6 6 10 11 14 11 9 0 -5 12 1
26 15 l27 24 -12 -23 c-7 -13 -10 -26 -7 -29 3 -3 0 -15 -6 -27 -10 -18 -9
-19 4 -9 12 10 15 10 16 -2 1 -8 3 -21 4 -28 1 -10 14 -11 57 -6 31 5 75 9 98
10 24 2 48 6 55 10 6 4 -18 5 -55 2 -76 -6 -65 -20 -92 126 -24 135 -28 128
63 136 42 3 94 8 114 11 l37 6 5 -44 c3 -24 10 -72 15 -108 10 -65 10 -65 5
20 -3 47 -6 94 -7 105 -2 16 7 21 52 27 90 14 72 18 -59 16 l-124 -3 -7 45
c-4 25 -10 84 -14 132 l-7 87 39 4 c21 2 -8 2 -64 0 -119 -5 -106 -20 -121
142 l-10 100 6 -126 5 -125 -112 -13 c-61 -8 -114 -12 -116 -9 -3 2 -11 65
-18 139 -8 74 -15 118 -16 98z m402 -296 c4 -43 10 -103 13 -134 l6 -55 -112
-13 c-62 -6 -114 -11 -115 -9 -4 5 -35 216 -35 241 0 23 5 25 78 34 42 6 95
11 118 12 l41 1 6 -77z"/>
<path d="M6468 6223 c7 -3 16 -2 19 1 4 3 -2 6 -13 5 -11 0 -14 -3 -6 -6z"/>
<path d="M4181 6184 c0 -11 3 -14 6 -6 3 7 2 16 -1 19 -3 4 -6 -2 -5 -13z"/>
<path d="M4193 6105 c0 -27 2 -38 4 -22 2 15 2 37 0 50 -2 12 -4 0 -4 -28z"/>
<path d="M3830 6110 c-8 -5 -10 -10 -5 -10 6 0 17 5 25 10 8 5 11 10 5 10 -5
0 -17 -5 -25 -10z"/>
<path d="M3770 6084 c-16 -10 -18 -13 -5 -8 11 4 28 7 37 8 9 0 14 4 12 8 -7
11 -15 10 -44 -8z"/>
<path d="M3992 6060 c0 -14 2 -19 5 -12 2 6 2 18 0 25 -3 6 -5 1 -5 -13z"/>
<path d="M6522 6020 c0 -14 2 -19 5 -12 2 6 2 18 0 25 -3 6 -5 1 -5 -13z"/>
<path d="M3649 6013 c-13 -16 -12 -17 4 -4 16 13 21 21 13 21 -2 0 -10 -8 -17
-17z"/>
<path d="M6555 6001 c-3 -5 -2 -12 3 -15 5 -3 9 1 9 9 0 17 -3 19 -12 6z"/>
<path d="M4002 5980 c0 -14 2 -19 5 -12 2 6 2 18 0 25 -3 6 -5 1 -5 -13z"/>
<path d="M5756 5975 c-11 -8 -17 -17 -14 -20 2 -3 13 4 23 15 21 23 18 25 -9
5z"/>
<path d="M6539 5957 c-4 -15 -2 -30 3 -33 4 -3 6 -9 3 -14 -8 -13 24 -5 38 9
9 10 9 12 -3 9 -11 -2 -14 4 -13 22 2 22 2 23 -6 5 -8 -19 -9 -18 -13 5 l-4
25 -5 -28z m22 -34 c13 -16 12 -17 -3 -4 -10 7 -18 15 -18 17 0 8 8 3 21 -13z"/>
<path d="M6510 5954 c0 -8 5 -12 10 -9 6 3 10 10 10 16 0 5 -4 9 -10 9 -5 0
-10 -7 -10 -16z"/>
<path d="M4012 5920 c0 -14 2 -19 5 -12 2 6 2 18 0 25 -3 6 -5 1 -5 -13z"/>
<path d="M7130 5936 c0 -2 8 -10 18 -17 15 -13 16 -12 3 4 -13 16 -21 21 -21
13z"/>
<path d="M5690 5919 c0 -5 5 -7 10 -4 6 3 10 8 10 11 0 2 -4 4 -10 4 -5 0 -10
-5 -10 -11z"/>
<path d="M6516 5897 c3 -10 9 -15 12 -12 3 3 0 11 -7 18 -10 9 -11 8 -5 -6z"/>
<path d="M4122 5865 c0 -24 35 -166 36 -145 1 8 -7 49 -17 90 -11 41 -19 66
-19 55z"/>
<path d="M3503 5810 c0 -25 2 -35 4 -22 2 12 2 32 0 45 -2 12 -4 2 -4 -23z"/>
<path d="M4170 5655 c0 -30 16 -35 61 -20 l44 14 -44 -5 c-31 -5 -46 -2 -52 7
-5 8 -9 10 -9 4z"/>
<path d="M4281 5633 c2 -25 2 -26 6 -5 3 16 10 22 19 18 9 -3 12 -1 9 4 -13
21 -35 10 -34 -17z"/>
<path d="M4150 5620 c-9 -6 -10 -10 -3 -10 6 0 15 5 18 10 8 12 4 12 -15 0z"/>
<path d="M6416 5554 c-4 -14 -5 -28 -3 -31 3 -2 8 8 11 23 4 14 5 28 3 31 -3
2 -8 -8 -11 -23z"/>
<path d="M3551 5514 c0 -11 3 -14 6 -6 3 7 2 16 -1 19 -3 4 -6 -2 -5 -13z"/>
<path d="M6396 5495 c-3 -9 -6 -22 -5 -28 0 -7 5 -1 10 12 5 13 8 26 5 28 -2
2 -6 -3 -10 -12z"/>
<path d="M3602 5435 c6 -19 15 -32 19 -29 5 3 7 -1 4 -8 -3 -7 3 -37 13 -66
l19 -53 8 33 c13 53 12 88 -2 99 -7 6 -11 15 -8 19 2 4 -7 6 -20 4 -16 -1 -25
3 -25 11 0 8 -4 16 -9 19 -5 4 -4 -10 1 -29z m54 -41 c1 -9 0 -13 -4 -10 -3 4
-7 14 -8 22 -1 9 0 13 4 10 3 -4 7 -14 8 -22z"/>
<path d="M3703 5398 c-20 -26 -26 -41 -15 -34 12 7 36 46 29 46 -3 0 -9 -6
-14 -12z"/>
<path d="M6546 5385 c-9 -26 -7 -32 5 -12 6 10 9 21 6 23 -2 3 -7 -2 -11 -11z"/>
<path d="M6036 5334 c-4 -14 -5 -28 -3 -31 3 -2 8 8 11 23 4 14 5 28 3 31 -3
2 -8 -8 -11 -23z"/>
<path d="M7026 5306 c-7 -27 -108 -206 -116 -206 -3 0 -14 15 -23 33 -28 50
-173 144 -247 161 -24 5 -24 4 -5 -10 10 -8 34 -20 52 -26 18 -7 33 -16 33
-20 0 -8 -96 -166 -122 -201 -12 -17 -16 -16 -66 5 -37 15 -51 27 -47 37 4 11
2 11 -8 2 -11 -8 -28 -6 -73 10 -32 11 -70 23 -84 25 -14 3 -50 12 -80 20 -30
8 -71 17 -90 20 -57 7 -143 24 -147 27 -2 2 2 18 8 36 6 18 9 34 7 37 -3 2
-10 -14 -17 -36 -10 -34 -15 -39 -34 -36 -12 3 -47 7 -77 10 -48 4 -52 4 -30
-7 17 -8 25 -19 23 -32 -2 -16 -1 -16 7 3 9 21 15 23 48 18 20 -3 58 -8 85
-12 34 -5 47 -11 47 -23 0 -13 2 -13 9 -2 7 11 19 12 75 1 36 -8 71 -17 77
-21 8 -5 -4 -37 -39 -104 -29 -53 -46 -93 -39 -88 6 5 18 8 25 7 6 -1 19 -2
27 -3 12 -1 13 -6 2 -28 -6 -16 -16 -31 -22 -35 -5 -4 -6 -8 -2 -8 5 0 -1 -13
-13 -30 -12 -16 -18 -30 -14 -30 3 0 1 -7 -6 -15 -7 -8 -9 -15 -5 -15 4 0 1
-8 -6 -17 -9 -11 -10 -14 -2 -9 9 5 11 2 7 -8 -3 -9 -9 -14 -13 -11 -15 9 -7
-26 9 -40 16 -15 23 -9 92 65 l75 82 42 -21 c22 -12 41 -24 41 -26 0 -3 -42
-46 -92 -96 -51 -49 -88 -89 -83 -88 17 3 75 -22 75 -33 0 -5 -4 -6 -10 -3
-16 10 -12 -21 4 -34 21 -18 29 -66 15 -93 -11 -20 -9 -20 22 6 37 32 48 60
19 51 -22 -7 -37 35 -16 47 7 4 53 38 103 76 89 68 91 69 101 47 12 -27 5 -35
-98 -109 -35 -26 -65 -54 -66 -62 -1 -8 3 -13 9 -11 7 3 11 9 10 15 -2 6 3 9
10 6 13 -4 134 75 149 98 4 7 8 27 8 43 0 25 16 47 88 118 85 85 102 94 102
55 0 -10 2 -18 5 -18 15 0 165 192 165 211 0 3 22 44 50 90 27 46 50 88 50 93
0 6 9 19 19 30 11 12 23 34 27 50 6 24 4 28 -8 23 -12 -4 -14 0 -11 14 3 10 3
19 0 19 -3 0 -8 -11 -11 -24z m-172 -165 l28 -29 -51 -74 c-28 -40 -62 -86
-76 -103 l-25 -30 -27 28 c-20 20 -25 31 -18 41 6 8 37 54 70 104 33 50 63 91
66 91 3 1 18 -12 33 -28z m-383 -92 c42 -19 47 -24 37 -37 -12 -13 -11 -14 8
-2 19 11 26 11 54 -6 19 -11 35 -24 37 -31 3 -9 -84 -119 -144 -181 -10 -10
-20 -9 -54 8 -41 21 -41 22 -22 43 l18 22 -22 -19 c-21 -17 -24 -17 -73 -1
-50 16 -51 18 -36 38 9 12 39 59 68 104 29 45 59 82 66 83 7 0 36 -10 63 -21z"/>
<path d="M6479 4973 c-13 -16 -12 -17 4 -4 9 7 17 15 17 17 0 8 -8 3 -21 -13z"/>
<path d="M6449 4933 c-13 -16 -12 -17 4 -4 9 7 17 15 17 17 0 8 -8 3 -21 -13z"/>
<path d="M6414 4888 l-19 -23 23 19 c12 11 22 21 22 23 0 8 -8 2 -26 -19z"/>
<path d="M3970 5257 c-57 -28 -75 -41 -131 -99 -50 -51 -66 -99 -48 -145 9
-24 65 -100 101 -136 10 -10 18 -21 18 -25 1 -4 15 -23 32 -42 30 -35 30 -35
24 -7 -4 18 0 41 14 68 21 44 16 75 -7 44 -9 -13 -13 -14 -13 -5 0 9 -5 7 -14
-6 -8 -10 -18 -16 -22 -11 -4 4 -1 7 7 7 11 0 11 2 -1 10 -13 9 -13 10 1 10 8
0 36 21 62 47 46 45 56 63 38 63 -5 0 -12 7 -15 16 -6 14 -4 15 11 4 10 -7 2
2 -17 21 -19 18 -28 30 -19 27 9 -4 16 -1 16 8 0 7 -5 11 -10 7 -5 -3 -6 4 -2
18 7 20 6 22 -7 12 -12 -10 -15 -10 -15 2 0 7 3 14 6 13 26 -3 31 3 21 23 -10
17 -9 20 7 17 13 -2 17 2 15 16 -2 12 1 16 9 10 8 -4 10 -3 5 5 -4 6 -12 9
-17 6 -5 -4 -9 3 -9 14 0 10 6 22 13 24 6 3 8 5 2 6 -5 0 -30 -10 -55 -22z
m-62 -355 c51 -60 53 -75 4 -31 -18 16 -30 29 -26 29 3 0 -15 26 -40 58 -25
32 -46 64 -46 72 0 7 14 -7 32 -31 17 -24 51 -68 76 -97z"/>
<path d="M6216 5265 c-9 -26 -7 -32 5 -12 6 10 9 21 6 23 -2 3 -7 -2 -11 -11z"/>
<path d="M6555 5220 c-9 -16 -13 -30 -11 -30 3 0 12 14 21 30 9 17 13 30 11
30 -3 0 -12 -13 -21 -30z"/>
<path d="M6367 5185 c-15 -30 -25 -55 -22 -55 7 0 57 101 53 106 -2 2 -16 -21
-31 -51z"/>
<path d="M6192 5205 c-17 -37 -14 -45 4 -12 9 16 14 31 11 33 -2 2 -9 -7 -15
-21z"/>
<path d="M6500 5120 c-6 -11 -8 -20 -6 -20 3 0 10 9 16 20 6 11 8 20 6 20 -3
0 -10 -9 -16 -20z"/>
<path d="M4851 5104 c0 -11 3 -14 6 -6 3 7 2 16 -1 19 -3 4 -6 -2 -5 -13z"/>
<path d="M5066 5018 l5 -46 -78 -7 c-95 -8 -238 -32 -201 -34 15 -1 32 -9 38
-18 10 -17 10 -16 8 2 -3 18 5 21 71 29 55 6 75 5 81 -4 6 -9 9 -9 12 1 3 10
29 15 85 17 79 4 81 3 86 -19 4 -22 4 -22 6 4 l1 27 103 2 c63 1 80 3 45 5
l-57 4 -4 37 -4 37 -1 -37 -2 -38 -52 0 c-29 0 -69 -3 -89 -6 l-36 -6 -11 48
-11 49 5 -47z"/>
<path d="M4881 5010 c0 -8 4 -22 9 -30 12 -18 12 -2 0 25 -6 13 -9 15 -9 5z"/>
<path d="M5001 4910 c0 -8 4 -24 9 -35 5 -13 9 -14 9 -5 0 8 -4 24 -9 35 -5
13 -9 14 -9 5z"/>
<path d="M5182 4875 c0 -16 2 -22 5 -12 2 9 2 23 0 30 -3 6 -5 -1 -5 -18z"/>
<path d="M4841 4885 c0 -5 11 -30 24 -55 13 -25 24 -40 24 -35 0 6 -11 30 -24
55 -13 25 -24 41 -24 35z"/>
<path d="M5192 4815 c0 -16 2 -22 5 -12 2 9 2 23 0 30 -3 6 -5 -1 -5 -18z"/>
<path d="M4279 4793 c-1 -5 -1 -12 0 -16 1 -5 -3 -5 -9 -2 -18 11 -87 -43
-105 -82 -18 -38 -15 -98 6 -117 9 -8 10 -8 5 2 -4 6 -5 12 -3 12 14 0 208
-139 232 -166 21 -24 65 -49 150 -85 66 -28 125 -54 130 -59 6 -4 28 -10 50
-13 36 -6 35 -5 -15 13 -58 20 -80 41 -80 76 0 27 19 48 80 86 39 25 41 28 17
24 -15 -3 -25 -1 -22 4 3 4 18 7 34 6 23 -2 27 1 23 18 -3 10 -1 17 4 15 13
-7 71 57 68 75 -1 9 2 14 7 10 5 -3 13 5 18 18 7 16 10 18 10 6 1 -9 -3 -20
-9 -23 -5 -3 -10 -12 -10 -18 0 -7 8 0 18 16 9 15 22 25 29 23 7 -3 10 1 6 9
-3 8 -10 12 -16 8 -6 -3 -7 -1 -3 5 4 6 -1 23 -10 37 -20 31 -18 33 37 44 31
6 37 9 19 11 -14 1 -29 1 -35 0 -27 -7 -202 -42 -215 -44 -9 -1 -20 -5 -25 -8
-13 -7 -78 -22 -87 -20 -5 1 -8 -2 -8 -6 0 -4 -16 -14 -35 -21 -34 -12 -38
-11 -73 15 -20 16 -31 20 -23 11 7 -9 9 -17 4 -17 -5 0 -14 -10 -19 -22 -6
-13 -9 -18 -8 -12 1 6 -3 17 -9 24 -9 10 -9 11 3 5 11 -6 10 -3 -2 12 -10 11
-18 22 -18 26 0 7 -47 55 -57 59 -4 2 -9 12 -11 22 -2 18 0 18 22 -3 14 -13
23 -27 21 -32 -3 -4 -1 -10 4 -13 5 -4 12 -2 15 2 3 5 -10 23 -28 41 -33 32
-47 31 -52 -4 0 -5 -2 -16 -2 -22 -1 -7 -6 -13 -10 -13 -5 0 -6 20 -2 45 4 25
3 45 -2 45 -4 0 -9 -3 -9 -7z m11 -180 c84 -64 99 -80 94 -97 -4 -12 -8 -23
-10 -25 -5 -5 -201 126 -209 139 -5 8 14 60 22 60 2 0 48 -35 103 -77z m214
-42 c6 -9 129 -93 162 -110 12 -5 25 -7 30 -3 5 4 -8 -12 -29 -36 -25 -28 -37
-52 -37 -72 l0 -30 -50 20 c-91 36 -169 80 -180 101 -16 29 -4 68 33 107 30
31 60 41 71 23z"/>
<path d="M5050 4751 c0 -5 -12 -12 -27 -14 -26 -4 -26 -4 5 -6 22 -1 32 3 32
14 0 8 -2 15 -5 15 -3 0 -5 -4 -5 -9z"/>
<path d="M5103 4743 c15 -2 37 -2 50 0 12 2 0 4 -28 4 -27 0 -38 -2 -22 -4z"/>
<path d="M4120 4616 c0 -2 8 -10 18 -17 15 -13 16 -12 3 4 -13 16 -21 21 -21
13z"/>
<path d="M4814 4528 l-19 -23 23 19 c12 11 22 21 22 23 0 8 -8 2 -26 -19z"/>
<path d="M5495 4231 c4 -8 2 -17 -6 -22 -9 -6 -10 -9 -2 -9 19 0 27 21 13 33
-10 9 -11 9 -5 -2z"/>
<path d="M5528 4203 c6 -2 18 -2 25 0 6 3 1 5 -13 5 -14 0 -19 -2 -12 -5z"/>
<path d="M6246 4053 c20 -15 68 -18 60 -4 -3 5 -22 11 -42 13 -32 4 -34 3 -18
-9z"/>
<path d="M6896 4048 c-22 -32 -20 -38 14 -38 23 0 30 5 30 19 0 10 -6 24 -14
30 -11 10 -17 7 -30 -11z"/>
<path d="M3914 4036 c11 -9 29 -16 40 -16 28 0 8 17 -29 25 -29 6 -29 6 -11
-9z"/>
<path d="M6380 3970 c0 -5 19 -10 43 -9 32 0 37 2 22 9 -28 12 -65 12 -65 0z"/>
<path d="M5055 3840 c-3 -5 3 -10 14 -10 12 0 21 5 21 10 0 6 -6 10 -14 10 -8
0 -18 -4 -21 -10z"/>
<path d="M3435 3809 c-9 -13 -7 -15 28 -23 31 -7 37 8 8 24 -25 13 -28 13 -36
-1z"/>
<path d="M7078 3793 c6 -2 18 -2 25 0 6 3 1 5 -13 5 -14 0 -19 -2 -12 -5z"/>
<path d="M4958 3783 c6 -2 18 -2 25 0 6 3 1 5 -13 5 -14 0 -19 -2 -12 -5z"/>
<path d="M6280 3775 c-11 -13 -8 -15 13 -15 19 0 25 4 21 15 -4 8 -10 15 -14
15 -4 0 -13 -7 -20 -15z"/>
<path d="M3915 3740 c-3 -5 3 -10 14 -10 12 0 21 5 21 10 0 6 -6 10 -14 10 -8
0 -18 -4 -21 -10z"/>
<path d="M4290 3741 c0 -6 14 -11 30 -11 17 0 30 -4 30 -10 0 -5 9 -10 20 -10
33 0 22 17 -16 24 -19 4 -42 10 -50 13 -8 3 -14 0 -14 -6z"/>
<path d="M5418 3743 c7 -3 16 -2 19 1 4 3 -2 6 -13 5 -11 0 -14 -3 -6 -6z"/>
<path d="M6690 3740 c0 -5 7 -10 15 -10 8 0 15 5 15 10 0 6 -7 10 -15 10 -8 0
-15 -4 -15 -10z"/>
<path d="M3432 3718 c3 -7 17 -14 32 -16 20 -3 27 0 24 10 -3 7 -17 14 -32 16
-20 3 -27 0 -24 -10z"/>
<path d="M5800 3706 c0 -12 20 -56 45 -99 41 -69 49 -77 75 -77 17 0 30 3 30
6 0 3 -18 36 -39 72 -22 37 -42 77 -45 88 -4 14 -17 23 -36 26 -25 4 -30 1
-30 -16z"/>
<path d="M4347 3617 c-14 -22 -14 -28 4 -68 11 -24 27 -65 36 -91 14 -43 18
-48 45 -48 28 0 30 2 24 28 -10 41 -79 202 -87 202 -4 0 -14 -11 -22 -23z"/>
<path d="M3532 3598 c-26 -42 -27 -50 -6 -93 10 -21 27 -38 46 -44 46 -16 51
-14 28 17 -11 15 -26 56 -33 91 l-13 64 -22 -35z"/>
<path d="M6196 3591 c-15 -16 -16 -25 -6 -62 14 -53 68 -109 104 -109 l25 0
-24 36 c-25 37 -26 40 -45 112 -12 46 -27 53 -54 23z"/>
<path d="M3856 3577 c-17 -13 -18 -17 -3 -68 18 -61 48 -95 96 -109 l32 -9
-26 30 c-13 17 -32 56 -41 87 -22 81 -22 82 -32 82 -4 0 -16 -6 -26 -13z"/>
<path d="M4810 3560 c0 -61 60 -130 114 -130 18 0 17 3 -6 28 -14 15 -32 47
-39 72 -14 48 -24 60 -51 60 -13 0 -18 -8 -18 -30z"/>
<path d="M6963 3575 c4 -9 7 -22 7 -29 0 -27 48 -66 81 -66 30 0 31 1 16 18
-8 9 -19 29 -22 45 -8 32 -9 32 -54 42 -29 6 -33 5 -28 -10z"/>
<path d="M3110 3450 c0 -27 35 -60 64 -60 l23 0 -19 40 c-15 30 -26 40 -44 40
-17 0 -24 -6 -24 -20z"/>
<path d="M5310 3450 c0 -38 19 -60 50 -60 17 0 30 2 30 4 0 19 -25 66 -35 66
-7 0 -20 3 -29 6 -12 4 -16 0 -16 -16z"/>
<path d="M4416 3365 c10 -8 30 -15 43 -15 20 0 21 2 11 15 -7 8 -26 15 -43 15
-29 0 -30 -1 -11 -15z"/>
<path d="M5720 3340 c20 -13 60 -13 60 0 0 6 -17 10 -37 10 -28 0 -34 -3 -23
-10z"/>
<path d="M6950 3290 c12 -23 106 -80 132 -80 12 0 1 16 -33 50 -38 38 -57 50
-80 50 -27 0 -29 -2 -19 -20z"/>
<path d="M6509 3196 c6 -8 27 -16 46 -18 33 -4 34 -3 18 14 -20 22 -82 26 -64
4z"/>
</g>
</svg>
